<svg xmlns="http://www.w3.org/2000/svg" viewBox="20 0 572 515" fill="none">
  <path fill-rule="nonzero" fill="rgb(61.961365%, 71.765137%, 55.686951%)" fill-opacity="1" d="M 335.433594 53.515625 L 335.433594 57.914062 C 335.902344 61.195312 337.300781 64.285156 337.300781 64.285156 C 337.300781 64.285156 338.101562 57.34375 339.0625 54.015625 C 339.101562 53.875 339.144531 53.734375 339.183594 53.59375 L 339.183594 53.515625 Z M 335.433594 53.515625 "/>
  <path fill-rule="nonzero" fill="rgb(61.961365%, 71.765137%, 55.686951%)" fill-opacity="1" d="M 339.183594 53.515625 L 339.183594 53.59375 C 339.144531 53.734375 339.101562 53.875 339.0625 54.015625 C 338.101562 57.34375 337.300781 64.285156 337.300781 64.285156 C 337.300781 64.285156 335.902344 61.195312 335.433594 57.914062 C 335.332031 57.234375 335.273438 56.546875 335.28125 55.875 C 335.292969 55.207031 335.34375 54.515625 335.433594 53.816406 C 335.441406 53.714844 335.453125 53.617188 335.472656 53.515625 Z M 339.183594 53.515625 "/>
  <path fill-rule="nonzero" fill="rgb(61.961365%, 71.765137%, 55.686951%)" fill-opacity="1" d="M 287.113281 298.984375 C 314.339844 310.546875 332.59375 323.265625 333.671875 339.066406 C 334.460938 350.695312 335.03125 364.234375 335.433594 378.296875 L 335.433594 479.324219 C 333.0625 467.9375 322.972656 459.386719 310.882812 459.386719 C 299.832031 459.386719 290.441406 466.546875 287.113281 476.496094 Z M 591.78125 378.726562 C 590.753906 380.296875 589.523438 381.785156 588.132812 383.164062 C 576.78125 394.414062 559.582031 398.054688 544.574219 392.566406 C 541.613281 391.484375 539.144531 390.246094 537.492188 389.015625 C 529.414062 382.984375 525.34375 372.984375 525.753906 362.90625 C 526.453125 345.515625 527.761719 306.214844 527.492188 259.566406 C 544.992188 261.34375 558.691406 276.175781 558.691406 294.136719 L 558.691406 335.625 C 545.722656 336.574219 535.492188 347.40625 535.492188 360.625 C 535.492188 374.476562 546.722656 385.695312 560.5625 385.695312 C 574.414062 385.695312 585.644531 374.476562 585.644531 360.625 C 585.644531 347.40625 575.414062 336.574219 562.441406 335.625 L 562.441406 294.136719 C 562.441406 274.09375 547.050781 257.574219 527.460938 255.796875 C 527.191406 219.164062 525.921875 178.324219 522.632812 140.136719 C 520.792969 118.804688 516.59375 101.304688 511.050781 86.957031 C 495.953125 47.824219 456.984375 21.585938 415.03125 21.585938 L 414.292969 21.546875 C 406.394531 21.105469 398.484375 21.117188 390.582031 21.585938 C 380.394531 21.585938 362.042969 25.09375 353.382812 30.476562 C 350.582031 32.226562 347.800781 34.335938 345.253906 36.886719 C 339.183594 42.957031 336.203125 48.515625 335.472656 53.515625 L 339.183594 53.515625 L 339.183594 53.59375 C 341.324219 46.246094 345.773438 33.335938 370.582031 30.9375 C 389.871094 29.066406 399.871094 39.496094 404.960938 49.253906 C 408.503906 56.035156 410.011719 63.707031 410.011719 71.355469 L 410.011719 255.636719 L 339.183594 255.636719 L 339.183594 53.59375 C 339.144531 53.734375 339.101562 53.875 339.0625 54.015625 C 338.101562 57.34375 337.300781 64.285156 337.300781 64.285156 C 337.300781 64.285156 335.902344 61.195312 335.433594 57.914062 L 335.433594 238.335938 C 331.09375 221.765625 322.863281 206.34375 311.082031 193.59375 C 293.132812 174.15625 264.292969 152.765625 218.613281 138.574219 C 115.332031 106.484375 43.273438 95.90625 34.8125 65.636719 C 26.339844 35.367188 50.5625 24.207031 50.5625 24.207031 C 50.5625 24.207031 86.742188 -5.554688 126.421875 11.367188 C 126.421875 11.367188 134.273438 9.34375 131.613281 30.527344 C 131.613281 30.527344 114.671875 98.285156 165.492188 99.496094 C 186.132812 99.984375 196.191406 88.695312 200.863281 75.117188 C 213.132812 39.4375 186.121094 2.867188 148.460938 0.484375 C 146.921875 0.386719 145.332031 0.316406 143.710938 0.277344 C 94.101562 -0.933594 50.542969 8.746094 26.339844 35.367188 C 6.171875 57.554688 -18.1875 124.996094 20.503906 179.824219 C 20.941406 178.117188 21.382812 176.34375 22.703125 175.175781 C 22.992188 174.914062 23.402344 175.035156 23.53125 175.394531 C 23.863281 176.324219 25.050781 176.464844 25.882812 176.546875 C 26.839844 176.644531 27.871094 176.59375 28.792969 176.875 C 29.253906 177.015625 29.664062 177.285156 30.074219 177.515625 C 30.511719 177.777344 31.152344 178.234375 31.703125 178.136719 C 32.132812 178.054688 32.414062 177.527344 32.632812 177.1875 C 32.921875 176.714844 33.164062 176.214844 33.460938 175.753906 C 34.59375 174.027344 36.550781 173.003906 38.5625 172.777344 C 39.441406 172.675781 40.53125 172.566406 41.402344 172.753906 C 41.613281 172.804688 41.800781 172.886719 41.972656 172.996094 C 43.542969 172.605469 45.082031 171.855469 46.742188 172.015625 C 47.59375 172.09375 48.394531 172.414062 49.191406 172.695312 C 50.03125 172.996094 50.871094 173.304688 51.683594 173.695312 C 52.363281 174.027344 52.800781 174.496094 53.074219 175.054688 C 55.371094 175.265625 57.433594 176.316406 58.113281 178.65625 C 58.683594 180.59375 58.324219 182.746094 57.824219 184.644531 C 59.292969 184.324219 60.5625 183.375 61.921875 182.777344 C 63.339844 182.136719 64.863281 181.875 66.351562 182.425781 C 67.8125 182.964844 69.011719 184.003906 70.171875 185.015625 C 70.292969 185.125 70.421875 185.234375 70.542969 185.34375 C 71.101562 185.675781 71.644531 186.046875 72.101562 186.515625 C 72.363281 186.765625 72.589844 187.054688 72.824219 187.34375 C 72.921875 187.425781 73.011719 187.527344 73.113281 187.605469 C 74.273438 187.585938 75.433594 187.476562 76.582031 187.464844 C 77.472656 187.464844 78.339844 187.585938 79.121094 188.027344 C 79.882812 188.464844 80.460938 189.136719 80.972656 189.835938 C 81.402344 190.414062 81.832031 191.003906 82.253906 191.59375 C 83.402344 191.515625 84.382812 190.925781 85.402344 190.457031 C 86.382812 190.003906 87.414062 189.675781 88.453125 189.414062 C 89.542969 189.136719 90.652344 188.945312 91.761719 188.796875 C 92.792969 188.664062 93.882812 188.535156 94.921875 188.644531 C 96.191406 188.777344 97.414062 189.457031 98.472656 190.234375 C 98.542969 190.226562 98.613281 190.234375 98.691406 190.253906 C 100.234375 190.734375 101.492188 191.777344 102.734375 192.753906 C 103.882812 193.675781 105.050781 194.617188 106.003906 195.753906 C 106.863281 196.785156 107.339844 197.886719 107.621094 199.195312 C 107.742188 199.765625 107.824219 200.40625 107.710938 200.964844 C 107.703125 201.394531 107.644531 201.816406 107.503906 202.234375 C 107.050781 203.625 106.042969 204.746094 104.953125 205.6875 C 103.851562 206.625 102.710938 207.464844 101.703125 208.496094 C 101.191406 209.015625 100.582031 209.324219 99.933594 209.554688 C 99.371094 210.207031 98.621094 210.675781 97.972656 211.226562 C 97.871094 211.304688 97.773438 211.40625 97.671875 211.496094 C 99.234375 211.277344 100.761719 210.734375 102.300781 210.464844 C 104.210938 210.125 106.101562 209.675781 107.992188 209.253906 C 108.882812 209.046875 109.78125 208.867188 110.703125 208.777344 C 111.253906 208.726562 111.839844 208.65625 112.421875 208.644531 C 112.492188 208.605469 112.574219 208.574219 112.671875 208.574219 C 116.183594 208.574219 119.722656 209.046875 122.902344 210.617188 C 124.089844 211.207031 125.203125 211.945312 126.222656 212.796875 C 126.722656 213.136719 127.234375 213.464844 127.703125 213.835938 C 128.574219 214.503906 129.292969 215.285156 129.933594 216.164062 C 130.589844 217.085938 131.144531 218.074219 131.644531 219.085938 C 132.089844 220.027344 132.492188 221.027344 132.484375 222.085938 C 132.484375 222.125 132.460938 222.164062 132.453125 222.195312 C 134.414062 222.65625 136.152344 223.925781 137.78125 225.066406 C 138.8125 225.777344 139.773438 226.585938 140.402344 227.675781 C 140.992188 228.6875 141.5625 229.796875 141.8125 230.957031 C 142.082031 231.515625 142.460938 232.035156 142.722656 232.605469 C 142.960938 233.144531 143.414062 233.664062 143.492188 234.277344 C 143.652344 235.585938 142.0625 236.777344 141.089844 237.386719 C 139.824219 238.175781 138.332031 238.765625 136.894531 239.136719 C 136.074219 239.335938 135.234375 239.496094 134.414062 239.6875 C 134.324219 239.707031 134.242188 239.726562 134.152344 239.746094 C 134.339844 239.875 134.53125 240.003906 134.734375 240.085938 C 135.292969 240.316406 135.78125 240.59375 136.292969 240.925781 C 137.324219 241.59375 138.363281 242.277344 139.300781 243.066406 C 140.203125 243.824219 141.042969 244.714844 141.613281 245.746094 C 141.753906 246.003906 141.871094 246.285156 141.984375 246.554688 C 142.042969 246.636719 142.089844 246.734375 142.089844 246.875 C 142.089844 246.894531 142.101562 246.925781 142.101562 246.945312 C 142.253906 247.445312 142.363281 247.964844 142.421875 248.484375 C 142.503906 248.726562 142.589844 248.964844 142.683594 249.207031 C 142.8125 249.566406 142.941406 249.925781 143.042969 250.296875 C 143.113281 250.585938 143.234375 250.90625 143.164062 251.207031 C 143.089844 251.515625 142.851562 251.695312 142.574219 251.804688 C 142.492188 251.84375 142.414062 251.867188 142.332031 251.894531 C 191.511719 268.324219 245.351562 281.886719 283.363281 297.425781 L 283.363281 484.605469 C 283.363281 499.996094 295.882812 512.515625 311.273438 512.515625 C 326.664062 512.515625 339.183594 499.996094 339.183594 484.605469 L 339.183594 259.386719 L 410.011719 259.386719 L 410.011719 284.996094 C 410.011719 312.367188 417.734375 339.425781 433.511719 361.796875 C 447.984375 382.304688 470.742188 401.875 506.011719 405.707031 C 566.792969 412.304688 586.394531 389.015625 591.914062 378.957031 C 591.863281 378.875 591.824219 378.804688 591.78125 378.726562 "/>
</svg>